<?xml version="1.0" encoding="utf-8"?>
<svg xmlns="http://www.w3.org/2000/svg" xml:space="preserve" id="Icons" x="0" y="0" version="1.1" viewBox="0 0 48 48">
  <style>
    .st3{fill:none;stroke:#45413c;stroke-linecap:round;stroke-linejoin:round;stroke-miterlimit:10}
  </style>
  <g id="XMLID_17497_">
    <ellipse id="XMLID_17513_" cx="24" cy="45.1" fill="#45413c" opacity=".15" rx="14.2" ry="1.9"/>
    <g id="XMLID_17498_">
      <path id="XMLID_17512_" fill="#fbd734" d="M37 44.5H11c-1.9 0-3.5-1.6-3.5-3.5V7.8C7.5 5.9 9 4.4 11 4.4h26c1.9 0 3.5 1.6 3.5 3.5V41c0 1.9-1.5 3.5-3.5 3.5z"/>
      <path id="XMLID_17511_" fill="#fff754" d="M37 4.4H11c-2 0-3.5 1.5-3.5 3.4v4C7.5 9.9 9 8.4 11 8.4h26c1.9 0 3.5 1.6 3.5 3.5v-4c0-2-1.5-3.5-3.5-3.5z"/>
      <path id="XMLID_17510_" d="M37 44.5H11c-1.9 0-3.5-1.6-3.5-3.5V7.8C7.5 5.9 9 4.4 11 4.4h26c1.9 0 3.5 1.6 3.5 3.5V41c0 1.9-1.5 3.5-3.5 3.5z" class="st3"/>
      <path id="XMLID_17509_" fill="#fffef2" d="M35.1 40.4H12.9c-.7 0-1.2-.6-1.2-1.2V11.6c0-.7.6-1.2 1.2-1.2h22.3c.7 0 1.2.6 1.2 1.2v27.6c0 .7-.6 1.2-1.3 1.2z"/>
      <path id="XMLID_17508_" fill="#fff" d="M35.1 10.4H12.9c-.7 0-1.2.6-1.2 1.2v3.9c0-.7.6-1.2 1.2-1.2h22.3c.7 0 1.2.6 1.2 1.2v-3.9c0-.7-.6-1.2-1.3-1.2z"/>
      <path id="XMLID_17507_" d="M35.1 40.4H12.9c-.7 0-1.2-.6-1.2-1.2V11.6c0-.7.6-1.2 1.2-1.2h22.3c.7 0 1.2.6 1.2 1.2v27.6c0 .7-.6 1.2-1.3 1.2z" class="st3"/>
      <path id="XMLID_17506_" fill="#daedf7" d="M26 8.1c0-1.1-.9-2-2-2s-2 .9-2 2h-3.5c-.7 0-1.2.6-1.2 1.2v1.9c0 .7.6 1.2 1.2 1.2h11c.7 0 1.2-.6 1.2-1.2V9.3c0-.7-.6-1.2-1.2-1.2H26z"/>
      <path id="XMLID_17505_" fill="#e8f4fa" d="M29.5 8.1H26c0-1.1-.9-2-2-2s-2 .9-2 2h-3.5c-.7 0-1.2.6-1.2 1.2v2c0-.7.6-1.2 1.2-1.2H22c0-1.1.9-2 2-2s2 .9 2 2h3.5c.7 0 1.2.5 1.2 1.2v-2c.1-.6-.5-1.2-1.2-1.2z"/>
      <path id="XMLID_17504_" d="M26 8.1c0-1.1-.9-2-2-2s-2 .9-2 2h-3.5c-.7 0-1.2.6-1.2 1.2v1.9c0 .7.6 1.2 1.2 1.2h11c.7 0 1.2-.6 1.2-1.2V9.3c0-.7-.6-1.2-1.2-1.2H26z" class="st3"/>
      <path id="XMLID_17503_" d="M15.4 16.3h6.2" class="st3"/>
      <path id="XMLID_17502_" d="M15.4 34.4h6.2" class="st3"/>
      <path id="XMLID_17501_" d="M15.4 20h14.5" class="st3"/>
      <path id="XMLID_17500_" d="M15.4 23.3h14.5" class="st3"/>
      <path id="XMLID_17499_" d="M15.4 26.9h14.5" class="st3"/>
    </g>
  </g>
</svg>